<?xml version="1.0" encoding="UTF-8"?>
<svg width="362px" height="198px" viewBox="0 0 362 198" version="1.1" xmlns="http://www.w3.org/2000/svg" xmlns:xlink="http://www.w3.org/1999/xlink">
    <!-- Generator: Sketch 60.1 (88133) - https://sketch.com -->
    <title>编组</title>
    <desc>Created with Sketch.</desc>
    <g id="页面-1" stroke="none" stroke-width="1" fill="none" fill-rule="evenodd" stroke-linecap="round">
        <g id="编组" transform="translate(3.425479, 3.000000)" stroke="#4B4B4B" stroke-width="5">
            <path d="M0,134.542969 C61.828125,95.453125 97.3789062,37.4609375 120.589844,0 C104.152344,79.4609375 101.949219,81.03125 73.6953125,134.542969 C101.193973,4.44751376 47.832717,10.1090834 29.0023555,26.0854682 C10.171994,42.061853 4.10879946,70.6781579 27.6217047,90.8536628 C51.1346098,111.029168 88.7337686,111.029168 134.360203,82.6542046 C93.9825044,118.496233 148.732801,105.547096 108.810493,134.542969 C131.948167,135.349158 159.033822,112.92533 190.067459,67.2714844 C165.834079,104.293052 155.36419,126.71688 158.657792,134.542969 C163.598196,146.282101 211.849444,85.4833775 244.141092,85.4833775 C198.831612,96.2724439 184.455497,138.180186 203.315422,134.542969 C222.175348,130.905752 226.003832,106.185667 244.141092,94.2682569 C227.266854,123.304625 211.634105,144.790456 211.634105,167.22429 C211.634105,189.658125 177.318467,201.046821 171.413961,182.61721 C165.509456,164.187599 180.975206,157.97513 203.315422,146.951198 C225.655639,135.927265 287.602999,102.661685 292.609128,90.8536628 C297.615256,79.0456405 275.744249,85.204033 260.581414,98.2875621 C245.41858,111.371091 239.929462,141.659581 267.072119,134.542969 C285.167223,129.798561 303.855331,113.260615 323.136441,84.9291331 C311.792193,111.567336 303.47358,128.757625 298.180603,136.5 C322.611622,116.442749 331.93361,91.5098383 350.992269,85.8582662 C370.050927,80.206694 321.745753,139.963867 336.323886,136.5 C346.042641,134.190755 350.932102,132.673445 350.992269,131.948069" id="路径" stroke-linejoin="round"></path>
            <path d="M153.40878,85.8582662 C162.855473,84.6194221 172.386416,84 182.00161,84 C191.616804,84 198.050851,84.6194221 201.30375,85.8582662" id="直线"></path>
        </g>
    </g>
</svg>